<?xml version="1.0" standalone="no"?><!DOCTYPE svg PUBLIC "-//W3C//DTD SVG 1.1//EN" "http://www.w3.org/Graphics/SVG/1.1/DTD/svg11.dtd"><svg t="1734771221740" class="icon" viewBox="0 0 1024 1024" version="1.1" xmlns="http://www.w3.org/2000/svg" p-id="1060" xmlns:xlink="http://www.w3.org/1999/xlink" width="200" height="200"><path d="M488.83 98.23h46.34c215.72 0 390.6 174.88 390.6 390.6v46.34c0 215.72-174.88 390.6-390.6 390.6h-46.34c-215.72 0-390.6-174.88-390.6-390.6v-46.34c0-215.73 174.87-390.6 390.6-390.6z m54.2 444.8h134.48c17.14 0 31.03-13.89 31.03-31.03s-13.89-31.03-31.03-31.03H543.03V346.49c0-17.14-13.89-31.03-31.03-31.03s-31.03 13.89-31.03 31.03v134.48H346.49c-17.14 0-31.03 13.89-31.03 31.03s13.89 31.03 31.03 31.03h134.48v134.48c0 17.14 13.89 31.03 31.03 31.03s31.03-13.89 31.03-31.03V543.03z" p-id="1061"></path></svg>